<?xml version="1.0" encoding="UTF-8"?>
<!DOCTYPE svg PUBLIC "-//W3C//DTD SVG 1.1//EN" "http://www.w3.org/Graphics/SVG/1.1/DTD/svg11.dtd">
<svg xmlns="http://www.w3.org/2000/svg" version="1.1" width="144px" height="144px" style="shape-rendering:geometricPrecision; text-rendering:geometricPrecision; image-rendering:optimizeQuality; fill-rule:evenodd; clip-rule:evenodd" xmlns:xlink="http://www.w3.org/1999/xlink">
<g><path style="opacity:1" fill="#f4f4f4" d="M -0.5,-0.5 C 47.5,-0.5 95.5,-0.5 143.5,-0.5C 143.5,47.5 143.5,95.5 143.5,143.5C 95.5,143.5 47.5,143.5 -0.5,143.5C -0.5,95.5 -0.5,47.5 -0.5,-0.5 Z"/></g>
<g><path style="opacity:1" fill="#51a293" d="M 47.5,57.5 C 48.9867,60.4734 50.4867,63.4734 52,66.5C 52.6708,67.2524 53.5041,67.5858 54.5,67.5C 53.776,73.335 56.4427,76.6683 62.5,77.5C 63.8333,76.5 65.1667,75.5 66.5,74.5C 66.1075,76.2838 65.4408,77.9505 64.5,79.5C 63.6618,79.8417 63.3284,80.5084 63.5,81.5C 61.412,83.3356 60.0787,85.6689 59.5,88.5C 57.7152,92.2726 54.7152,93.9393 50.5,93.5C 49.1154,92.4264 47.9487,91.0931 47,89.5C 40.1791,76.5262 33.3458,63.5262 26.5,50.5C 26.6082,49.5581 26.9415,48.7247 27.5,48C 36.9412,45.5554 43.6079,48.7221 47.5,57.5 Z"/></g>
<g><path style="opacity:1" fill="#4a6089" d="M 109.5,57.5 C 108.818,53.8913 107.318,53.2247 105,55.5C 101.63,60.6823 99.6301,66.349 99,72.5C 97.975,74.687 96.475,76.3536 94.5,77.5C 90.512,75.8876 88.1786,72.8876 87.5,68.5C 90.5753,63.3521 93.4087,58.0188 96,52.5C 100.14,47.7886 105.306,46.2886 111.5,48C 112.936,51.6544 112.27,54.8211 109.5,57.5 Z"/></g>
<g><path style="opacity:1" fill="#4a6189" d="M 77.5,52.5 C 74.7347,56.4547 72.7347,60.7881 71.5,65.5C 70.1103,66.8993 69.1103,68.5659 68.5,70.5C 67.3263,71.5137 66.6596,72.847 66.5,74.5C 65.1667,75.5 63.8333,76.5 62.5,77.5C 60.9087,76.7811 59.4087,75.7811 58,74.5C 57.3299,71.8261 56.1632,69.4927 54.5,67.5C 55.1098,66.609 55.4431,65.609 55.5,64.5C 57.6822,60.6471 60.0155,56.8137 62.5,53C 67.4889,52.5007 72.4889,52.3341 77.5,52.5 Z"/></g>
<g><path style="opacity:1" fill="#51a292" d="M 78.5,53.5 C 81.3127,58.5942 84.3127,63.5942 87.5,68.5C 88.1786,72.8876 90.512,75.8876 94.5,77.5C 96.9468,77.385 98.9468,76.385 100.5,74.5C 97.5596,80.7597 94.2262,86.7597 90.5,92.5C 89.8333,93.1667 89.1667,93.8333 88.5,94.5C 85.3855,94.4452 83.0522,93.1119 81.5,90.5C 80.6167,87.2957 78.9501,84.6291 76.5,82.5C 76.6716,81.5084 76.3382,80.8417 75.5,80.5C 74.8832,77.6446 73.8832,74.9779 72.5,72.5C 73.4959,72.5858 74.3292,72.2524 75,71.5C 75.8215,68.8832 76.3215,66.2165 76.5,63.5C 76.6906,60.0173 77.3573,56.6839 78.5,53.5 Z"/></g>
<g><path style="opacity:1" fill="#394c6c" d="M 109.5,57.5 C 106.233,63.0353 103.233,68.7019 100.5,74.5C 98.9468,76.385 96.9468,77.385 94.5,77.5C 96.475,76.3536 97.975,74.687 99,72.5C 99.6301,66.349 101.63,60.6823 105,55.5C 107.318,53.2247 108.818,53.8913 109.5,57.5 Z"/></g>
<g><path style="opacity:1" fill="#bbbdbe" d="M 55.5,64.5 C 55.4431,65.609 55.1098,66.609 54.5,67.5C 53.5041,67.5858 52.6708,67.2524 52,66.5C 50.4867,63.4734 48.9867,60.4734 47.5,57.5C 48.4959,57.5858 49.3292,57.2524 50,56.5C 51.6091,59.4068 53.4424,62.0734 55.5,64.5 Z"/></g>
<g><path style="opacity:1" fill="#346961" d="M 77.5,52.5 C 78.1667,52.5 78.5,52.8333 78.5,53.5C 77.3573,56.6839 76.6906,60.0173 76.5,63.5C 75.7924,65.3779 74.6257,67.0445 73,68.5C 71.9614,67.7562 71.4614,66.7562 71.5,65.5C 72.7347,60.7881 74.7347,56.4547 77.5,52.5 Z"/></g>
<g><path style="opacity:1" fill="#46857b" d="M 76.5,63.5 C 76.3215,66.2165 75.8215,68.8832 75,71.5C 74.3292,72.2524 73.4959,72.5858 72.5,72.5C 71.6851,71.5707 70.8518,70.5707 70,69.5C 69.6174,70.056 69.1174,70.3893 68.5,70.5C 69.1103,68.5659 70.1103,66.8993 71.5,65.5C 71.4614,66.7562 71.9614,67.7562 73,68.5C 74.6257,67.0445 75.7924,65.3779 76.5,63.5 Z"/></g>
<g><path style="opacity:1" fill="#324760" d="M 54.5,67.5 C 56.1632,69.4927 57.3299,71.8261 58,74.5C 59.4087,75.7811 60.9087,76.7811 62.5,77.5C 56.4427,76.6683 53.776,73.335 54.5,67.5 Z"/></g>
<g><path style="opacity:1" fill="#d3d8d8" d="M 72.5,72.5 C 73.8832,74.9779 74.8832,77.6446 75.5,80.5C 71.6286,80.815 67.9619,80.4816 64.5,79.5C 65.4408,77.9505 66.1075,76.2838 66.5,74.5C 66.6596,72.847 67.3263,71.5137 68.5,70.5C 69.1174,70.3893 69.6174,70.056 70,69.5C 70.8518,70.5707 71.6851,71.5707 72.5,72.5 Z"/></g>
<g><path style="opacity:1" fill="#b5b7b7" d="M 64.5,79.5 C 67.9619,80.4816 71.6286,80.815 75.5,80.5C 76.3382,80.8417 76.6716,81.5084 76.5,82.5C 71.9677,82.8182 67.6344,82.4849 63.5,81.5C 63.3284,80.5084 63.6618,79.8417 64.5,79.5 Z"/></g>
<g><path style="opacity:1" fill="#8a8e8d" d="M 63.5,81.5 C 67.6344,82.4849 71.9677,82.8182 76.5,82.5C 78.9501,84.6291 80.6167,87.2957 81.5,90.5C 78.91,89.8717 76.5766,88.705 74.5,87C 69.2686,86.0959 64.2686,86.5959 59.5,88.5C 60.0787,85.6689 61.412,83.3356 63.5,81.5 Z"/></g>
<g><path style="opacity:1" fill="#777979" d="M 81.5,90.5 C 83.0522,93.1119 85.3855,94.4452 88.5,94.5C 86.7354,95.4614 84.7354,95.7947 82.5,95.5C 78.7304,92.1245 74.2304,90.7912 69,91.5C 62.9582,91.8056 57.1249,92.8056 51.5,94.5C 50.8333,94.5 50.5,94.1667 50.5,93.5C 54.7152,93.9393 57.7152,92.2726 59.5,88.5C 64.2686,86.5959 69.2686,86.0959 74.5,87C 76.5766,88.705 78.91,89.8717 81.5,90.5 Z"/></g>
<g><path style="opacity:1" fill="#909191" d="M 82.5,95.5 C 77.8153,94.074 72.982,93.4073 68,93.5C 64.7485,93.5191 61.9151,94.1858 59.5,95.5C 56.6146,95.8064 53.9479,95.4731 51.5,94.5C 57.1249,92.8056 62.9582,91.8056 69,91.5C 74.2304,90.7912 78.7304,92.1245 82.5,95.5 Z"/></g>
<g><path style="opacity:1" fill="#c3c4c5" d="M 90.5,92.5 C 90.67,93.8221 90.3366,94.9887 89.5,96C 79.4997,96.2503 69.4997,96.0836 59.5,95.5C 61.9151,94.1858 64.7485,93.5191 68,93.5C 72.982,93.4073 77.8153,94.074 82.5,95.5C 84.7354,95.7947 86.7354,95.4614 88.5,94.5C 89.1667,93.8333 89.8333,93.1667 90.5,92.5 Z"/></g>
</svg>
