<?xml version="1.0" encoding="UTF-8"?>
<!DOCTYPE svg PUBLIC "-//W3C//DTD SVG 1.1//EN" "http://www.w3.org/Graphics/SVG/1.1/DTD/svg11.dtd">
<svg xmlns="http://www.w3.org/2000/svg" version="1.1" width="384px" height="384px" style="shape-rendering:geometricPrecision; text-rendering:geometricPrecision; image-rendering:optimizeQuality; fill-rule:evenodd; clip-rule:evenodd" xmlns:xlink="http://www.w3.org/1999/xlink">
<g><path style="opacity:1" fill="#f4f4f4" d="M -0.5,-0.5 C 127.5,-0.5 255.5,-0.5 383.5,-0.5C 383.5,127.5 383.5,255.5 383.5,383.5C 255.5,383.5 127.5,383.5 -0.5,383.5C -0.5,255.5 -0.5,127.5 -0.5,-0.5 Z"/></g>
<g><path style="opacity:1" fill="#4fa292" d="M 124.5,149.5 C 125.472,152.437 126.805,155.103 128.5,157.5C 130.595,162.027 132.928,166.361 135.5,170.5C 137.928,175.693 140.595,180.693 143.5,185.5C 146.46,193.233 150.794,200.066 156.5,206C 161.48,209.476 166.147,209.309 170.5,205.5C 172.371,205.141 173.871,204.141 175,202.5C 186.368,182.43 197.201,162.097 207.5,141.5C 208.822,141.33 209.989,141.663 211,142.5C 218.289,156.752 225.789,170.752 233.5,184.5C 236.001,190.824 239.168,196.824 243,202.5C 244.264,204.607 246.097,205.607 248.5,205.5C 248.833,206.5 249.5,207.167 250.5,207.5C 259.051,208.539 265.051,204.872 268.5,196.5C 271.155,192.534 273.821,188.534 276.5,184.5C 267.458,202.916 258.125,221.249 248.5,239.5C 245.865,243.143 243.199,246.81 240.5,250.5C 239.391,250.557 238.391,250.89 237.5,251.5C 232.133,253.418 227.467,252.418 223.5,248.5C 222.061,246.64 220.395,244.973 218.5,243.5C 216.084,238.333 213.418,233.333 210.5,228.5C 209.921,225.669 208.588,223.336 206.5,221.5C 205.674,218.515 204.341,215.849 202.5,213.5C 200.681,208.528 198.347,203.861 195.5,199.5C 196.117,199.611 196.617,199.944 197,200.5C 197.667,199.167 198.333,197.833 199,196.5C 201.412,186.176 203.579,175.843 205.5,165.5C 205.674,163.139 206.007,160.806 206.5,158.5C 207.512,153.472 208.345,148.472 209,143.5C 205.93,149.54 202.763,155.54 199.5,161.5C 197.316,165.369 195.316,169.369 193.5,173.5C 190.571,177.049 188.571,180.716 187.5,184.5C 181.661,194.175 176.328,204.175 171.5,214.5C 169.992,216.181 168.992,218.181 168.5,220.5C 166.75,221.659 165.75,223.326 165.5,225.5C 163.182,229.465 160.848,233.465 158.5,237.5C 157.172,239.793 155.839,242.127 154.5,244.5C 149.932,252.134 143.599,254.134 135.5,250.5C 132.865,249.527 130.865,247.86 129.5,245.5C 111.948,212.066 94.1151,178.733 76,145.5C 73.0217,141.24 71.6883,136.573 72,131.5C 73.5429,129.622 75.3762,128.122 77.5,127C 98.8009,123.321 114.468,130.821 124.5,149.5 Z"/></g>
<g><path style="opacity:1" fill="#475e87" d="M 293.5,153.5 C 293.421,152.07 293.754,150.736 294.5,149.5C 294.278,146.287 292.612,144.454 289.5,144C 291.932,142.913 291.598,142.413 288.5,142.5C 288.587,139.402 288.087,139.068 287,141.5C 286.667,140.833 286.333,140.167 286,139.5C 273.623,155.797 266.456,174.131 264.5,194.5C 262.49,202.825 257.156,206.492 248.5,205.5C 246.097,205.607 244.264,204.607 243,202.5C 239.168,196.824 236.001,190.824 233.5,184.5C 241.828,170.517 249.661,156.184 257,141.5C 267.429,127.574 280.929,123.408 297.5,129C 301.212,131.602 302.378,135.102 301,139.5C 298.726,144.387 296.226,149.054 293.5,153.5 Z"/></g>
<g><path style="opacity:1" fill="#465e87" d="M 207.5,141.5 C 197.201,162.097 186.368,182.43 175,202.5C 173.871,204.141 172.371,205.141 170.5,205.5C 167.813,205.664 165.146,205.497 162.5,205C 159.266,202.009 155.933,199.176 152.5,196.5C 149.845,191.53 147.511,186.53 145.5,181.5C 145.5,181.167 145.5,180.833 145.5,180.5C 146.248,178.668 147.248,177.001 148.5,175.5C 148.833,174.833 149.167,174.167 149.5,173.5C 154.9,163.033 160.567,152.7 166.5,142.5C 180.15,141.501 193.817,141.167 207.5,141.5 Z"/></g>
<g><path style="opacity:1" fill="#d8d9d8" d="M 149.5,173.5 C 149.167,174.167 148.833,174.833 148.5,175.5C 147.13,175.144 146.13,174.31 145.5,173C 142.817,166.33 139.317,160.163 135,154.5C 133.007,155.914 130.84,156.914 128.5,157.5C 126.805,155.103 125.472,152.437 124.5,149.5C 125.931,147.563 127.598,145.73 129.5,144C 130.5,143.333 131.5,143.333 132.5,144C 140.105,152.043 144.938,161.543 147,172.5C 147.671,173.252 148.504,173.586 149.5,173.5 Z"/></g>
<g><path style="opacity:1" fill="#3c4f74" d="M 293.5,153.5 C 291.066,157.272 289.066,161.272 287.5,165.5C 285.75,166.659 284.75,168.326 284.5,170.5C 283.094,170.973 282.427,171.973 282.5,173.5C 282.5,173.833 282.5,174.167 282.5,174.5C 281.833,174.833 281.167,175.167 280.5,175.5C 282.137,169.291 280.637,168.291 276,172.5C 272.902,180.368 269.069,187.701 264.5,194.5C 266.456,174.131 273.623,155.797 286,139.5C 286.333,140.167 286.667,140.833 287,141.5C 288.087,139.068 288.587,139.402 288.5,142.5C 291.598,142.413 291.932,142.913 289.5,144C 292.612,144.454 294.278,146.287 294.5,149.5C 293.754,150.736 293.421,152.07 293.5,153.5 Z"/></g>
<g><path style="opacity:1" fill="#c2c2c3" d="M 148.5,175.5 C 147.248,177.001 146.248,178.668 145.5,180.5C 142.497,177.912 140.664,174.579 140,170.5C 138.586,169.587 137.086,169.587 135.5,170.5C 132.928,166.361 130.595,162.027 128.5,157.5C 130.84,156.914 133.007,155.914 135,154.5C 139.317,160.163 142.817,166.33 145.5,173C 146.13,174.31 147.13,175.144 148.5,175.5 Z"/></g>
<g><path style="opacity:1" fill="#244744" d="M 206.5,158.5 C 205.264,160.611 203.764,162.611 202,164.5C 201.333,161.833 200.667,161.833 200,164.5C 199.517,163.552 199.351,162.552 199.5,161.5C 202.763,155.54 205.93,149.54 209,143.5C 208.345,148.472 207.512,153.472 206.5,158.5 Z"/></g>
<g><path style="opacity:1" fill="#a4a6a6" d="M 145.5,180.5 C 145.5,180.833 145.5,181.167 145.5,181.5C 144.833,182.833 144.167,184.167 143.5,185.5C 140.595,180.693 137.928,175.693 135.5,170.5C 137.086,169.587 138.586,169.587 140,170.5C 140.664,174.579 142.497,177.912 145.5,180.5 Z"/></g>
<g><path style="opacity:1" fill="#2e6258" d="M 206.5,158.5 C 206.007,160.806 205.674,163.139 205.5,165.5C 203.416,168.053 202.083,171.053 201.5,174.5C 199.921,178.264 198.421,178.264 197,174.5C 196.026,176.878 195.359,176.544 195,173.5C 194.31,174.738 193.81,174.738 193.5,173.5C 195.316,169.369 197.316,165.369 199.5,161.5C 199.351,162.552 199.517,163.552 200,164.5C 200.667,161.833 201.333,161.833 202,164.5C 203.764,162.611 205.264,160.611 206.5,158.5 Z"/></g>
<g><path style="opacity:1" fill="#a3c6c0" d="M 287.5,165.5 C 287.408,167.848 286.408,169.514 284.5,170.5C 284.75,168.326 285.75,166.659 287.5,165.5 Z"/></g>
<g><path style="opacity:1" fill="#589b8f" d="M 284.5,170.5 C 284.573,172.027 283.906,173.027 282.5,173.5C 282.427,171.973 283.094,170.973 284.5,170.5 Z"/></g>
<g><path style="opacity:1" fill="#42897b" d="M 205.5,165.5 C 203.579,175.843 201.412,186.176 199,196.5C 198.333,197.833 197.667,199.167 197,200.5C 196.617,199.944 196.117,199.611 195.5,199.5C 192.642,195.117 190.308,190.45 188.5,185.5C 190.679,185.84 192.512,186.84 194,188.5C 195.016,187.366 195.683,187.699 196,189.5C 199.507,185.148 201.341,180.148 201.5,174.5C 202.083,171.053 203.416,168.053 205.5,165.5 Z"/></g>
<g><path style="opacity:1" fill="#39776b" d="M 193.5,173.5 C 193.81,174.738 194.31,174.738 195,173.5C 195.359,176.544 196.026,176.878 197,174.5C 198.421,178.264 199.921,178.264 201.5,174.5C 201.341,180.148 199.507,185.148 196,189.5C 195.683,187.699 195.016,187.366 194,188.5C 192.512,186.84 190.679,185.84 188.5,185.5C 187.833,185.5 187.5,185.167 187.5,184.5C 188.571,180.716 190.571,177.049 193.5,173.5 Z"/></g>
<g><path style="opacity:1" fill="#2d3d57" d="M 280.5,175.5 C 278.895,178.378 277.561,181.378 276.5,184.5C 273.821,188.534 271.155,192.534 268.5,196.5C 268.631,195.761 268.464,195.094 268,194.5C 264.534,202.146 258.701,206.479 250.5,207.5C 249.5,207.167 248.833,206.5 248.5,205.5C 257.156,206.492 262.49,202.825 264.5,194.5C 269.069,187.701 272.902,180.368 276,172.5C 280.637,168.291 282.137,169.291 280.5,175.5 Z"/></g>
<g><path style="opacity:1" fill="#58948d" d="M 282.5,174.5 C 281.421,178.425 279.421,181.758 276.5,184.5C 277.561,181.378 278.895,178.378 280.5,175.5C 281.167,175.167 281.833,174.833 282.5,174.5 Z"/></g>
<g><path style="opacity:1" fill="#2d3e56" d="M 145.5,181.5 C 147.511,186.53 149.845,191.53 152.5,196.5C 155.933,199.176 159.266,202.009 162.5,205C 165.146,205.497 167.813,205.664 170.5,205.5C 166.147,209.309 161.48,209.476 156.5,206C 150.794,200.066 146.46,193.233 143.5,185.5C 144.167,184.167 144.833,182.833 145.5,181.5 Z"/></g>
<g><path style="opacity:1" fill="#dcdedd" d="M 187.5,184.5 C 187.5,185.167 187.833,185.5 188.5,185.5C 190.308,190.45 192.642,195.117 195.5,199.5C 198.347,203.861 200.681,208.528 202.5,213.5C 201.312,214.048 200.145,214.381 199,214.5C 194.853,213.436 190.853,212.769 187,212.5C 181.568,213.315 176.402,213.982 171.5,214.5C 176.328,204.175 181.661,194.175 187.5,184.5 Z"/></g>
<g><path style="opacity:1" fill="#243a45" d="M 268.5,196.5 C 265.051,204.872 259.051,208.539 250.5,207.5C 258.701,206.479 264.534,202.146 268,194.5C 268.464,195.094 268.631,195.761 268.5,196.5 Z"/></g>
<g><path style="opacity:1" fill="#bdbebf" d="M 202.5,213.5 C 204.341,215.849 205.674,218.515 206.5,221.5C 201.955,220.313 197.455,219.313 193,218.5C 187.667,218.5 182.333,218.5 177,218.5C 175.667,219.167 174.333,219.833 173,220.5C 171.701,220.034 170.201,220.034 168.5,220.5C 168.992,218.181 169.992,216.181 171.5,214.5C 176.402,213.982 181.568,213.315 187,212.5C 190.853,212.769 194.853,213.436 199,214.5C 200.145,214.381 201.312,214.048 202.5,213.5 Z"/></g>
<g><path style="opacity:1" fill="#a4a5a6" d="M 206.5,221.5 C 208.588,223.336 209.921,225.669 210.5,228.5C 196.715,222.964 182.048,222.297 166.5,226.5C 165.893,226.376 165.56,226.043 165.5,225.5C 165.75,223.326 166.75,221.659 168.5,220.5C 170.201,220.034 171.701,220.034 173,220.5C 174.333,219.833 175.667,219.167 177,218.5C 182.333,218.5 187.667,218.5 193,218.5C 197.455,219.313 201.955,220.313 206.5,221.5 Z"/></g>
<g><path style="opacity:1" fill="#898b8b" d="M 210.5,228.5 C 213.418,233.333 216.084,238.333 218.5,243.5C 216.418,243.376 214.918,242.376 214,240.5C 213.667,240.833 213.333,241.167 213,241.5C 207.432,235.714 200.765,231.714 193,229.5C 187.667,229.5 182.333,229.5 177,229.5C 170.515,231.494 164.349,234.16 158.5,237.5C 160.848,233.465 163.182,229.465 165.5,225.5C 165.56,226.043 165.893,226.376 166.5,226.5C 182.048,222.297 196.715,222.964 210.5,228.5 Z"/></g>
<g><path style="opacity:1" fill="#7c7c7c" d="M 218.5,243.5 C 220.395,244.973 222.061,246.64 223.5,248.5C 217.81,247.556 217.143,249.223 221.5,253.5C 213.375,251.07 205.209,248.737 197,246.5C 196,247.167 195,247.833 194,248.5C 183.644,246.249 173.477,246.583 163.5,249.5C 162.287,249.747 161.62,250.414 161.5,251.5C 157.538,252.376 153.538,253.042 149.5,253.5C 152.804,250.407 156.304,247.407 160,244.5C 162.663,245.676 165.33,245.009 168,242.5C 178.06,242.634 187.726,242.634 197,242.5C 197.317,240.699 197.984,240.366 199,241.5C 199.5,241 200,240.5 200.5,240C 198.667,238.167 196.833,236.333 195,234.5C 194.667,234.833 194.333,235.167 194,235.5C 190.302,233.709 186.635,232.709 183,232.5C 176.796,233.573 170.629,235.739 164.5,239C 165.654,239.914 165.487,240.747 164,241.5C 162.16,240.167 161.66,240.334 162.5,242C 161.747,243.487 160.914,243.654 160,242.5C 158.416,243.861 156.582,244.528 154.5,244.5C 155.839,242.127 157.172,239.793 158.5,237.5C 164.349,234.16 170.515,231.494 177,229.5C 182.333,229.5 187.667,229.5 193,229.5C 200.765,231.714 207.432,235.714 213,241.5C 213.333,241.167 213.667,240.833 214,240.5C 214.918,242.376 216.418,243.376 218.5,243.5 Z"/></g>
<g><path style="opacity:1" fill="#747474" d="M 149.5,253.5 C 145.689,254.645 141.689,254.812 137.5,254C 136.177,253.184 135.511,252.017 135.5,250.5C 143.599,254.134 149.932,252.134 154.5,244.5C 156.582,244.528 158.416,243.861 160,242.5C 160.914,243.654 161.747,243.487 162.5,242C 161.66,240.334 162.16,240.167 164,241.5C 165.487,240.747 165.654,239.914 164.5,239C 170.629,235.739 176.796,233.573 183,232.5C 186.635,232.709 190.302,233.709 194,235.5C 194.333,235.167 194.667,234.833 195,234.5C 196.833,236.333 198.667,238.167 200.5,240C 200,240.5 199.5,241 199,241.5C 197.984,240.366 197.317,240.699 197,242.5C 187.726,242.634 178.06,242.634 168,242.5C 165.33,245.009 162.663,245.676 160,244.5C 156.304,247.407 152.804,250.407 149.5,253.5 Z"/></g>
<g><path style="opacity:1" fill="#e4e5e5" d="M 248.5,239.5 C 252.331,247.338 250.331,253.171 242.5,257C 240.212,257.822 237.878,258.489 235.5,259C 226.324,259.824 217.324,259.657 208.5,258.5C 215.687,258.825 222.687,258.491 229.5,257.5C 235.462,258.689 239.462,256.523 241.5,251C 241.272,250.601 240.938,250.435 240.5,250.5C 243.199,246.81 245.865,243.143 248.5,239.5 Z"/></g>
<g><path style="opacity:1" fill="#949596" d="M 221.5,253.5 C 225.545,255.177 229.878,255.844 234.5,255.5C 232.866,256.161 231.033,256.494 229,256.5C 223.5,256 218,255.5 212.5,255C 203.337,252.1 194.337,249.933 185.5,248.5C 177.417,248.975 169.417,249.975 161.5,251.5C 161.62,250.414 162.287,249.747 163.5,249.5C 173.477,246.583 183.644,246.249 194,248.5C 195,247.833 196,247.167 197,246.5C 205.209,248.737 213.375,251.07 221.5,253.5 Z"/></g>
<g><path style="opacity:1" fill="#6f7070" d="M 223.5,248.5 C 227.467,252.418 232.133,253.418 237.5,251.5C 237.912,253.973 236.912,255.306 234.5,255.5C 229.878,255.844 225.545,255.177 221.5,253.5C 217.143,249.223 217.81,247.556 223.5,248.5 Z"/></g>
<g><path style="opacity:1" fill="#b1b2b2" d="M 129.5,245.5 C 130.865,247.86 132.865,249.527 135.5,250.5C 135.511,252.017 136.177,253.184 137.5,254C 141.689,254.812 145.689,254.645 149.5,253.5C 153.538,253.042 157.538,252.376 161.5,251.5C 169.417,249.975 177.417,248.975 185.5,248.5C 194.337,249.933 203.337,252.1 212.5,255C 218,255.5 223.5,256 229,256.5C 231.033,256.494 232.866,256.161 234.5,255.5C 236.912,255.306 237.912,253.973 237.5,251.5C 238.391,250.89 239.391,250.557 240.5,250.5C 240.938,250.435 241.272,250.601 241.5,251C 239.462,256.523 235.462,258.689 229.5,257.5C 215.594,257.647 201.928,255.981 188.5,252.5C 172.412,254.21 156.078,255.543 139.5,256.5C 133.337,255.34 130.004,251.673 129.5,245.5 Z"/></g>
<g><path style="opacity:1" fill="#d5d6d6" d="M 229.5,257.5 C 222.687,258.491 215.687,258.825 208.5,258.5C 192.657,253.898 176.657,253.398 160.5,257C 153.321,257.821 146.321,257.655 139.5,256.5C 156.078,255.543 172.412,254.21 188.5,252.5C 201.928,255.981 215.594,257.647 229.5,257.5 Z"/></g>
</svg>
